<?xml version="1.0" encoding="UTF-8"?>
<svg id="Layer_1" data-name="Layer 1" xmlns="http://www.w3.org/2000/svg" version="1.1" viewBox="0 0 366.19 345.94">
  <defs>
    <style>
      .cls-1 {
        stroke-width: 16px;
      }

      .cls-1, .cls-2, .cls-3, .cls-4, .cls-5 {
        fill: #231f20;
      }

      .cls-1, .cls-3, .cls-4, .cls-5 {
        stroke: #fff;
      }

      .cls-1, .cls-3, .cls-4, .cls-5, .cls-6 {
        stroke-miterlimit: 10;
      }

      .cls-2 {
        font-family: BerlinSansFBDemi-Bold, 'Berlin Sans FB Demi';
        font-size: 48.13px;
        font-weight: 700;
      }

      .cls-3 {
        stroke-width: 3px;
      }

      .cls-5 {
        stroke-width: 5px;
      }

      .cls-6 {
        stroke: #231f20;
      }

      .cls-6, .cls-7 {
        fill: #fff;
      }

      .cls-7 {
        stroke-width: 0px;
      }
    </style>
  </defs>
  <path class="cls-4" d="M96.43,77.35c2.35-1.72,27.17-19.35,53.51-13.16,12.47,2.93,21.05,8.77,21.05,8.77,11.65,7.93,13.17,15.64,20.18,15.79,6.6.14,8.15-6.63,20.18-13.16,6.64-3.6,12.17-4.79,18.42-6.14,1.88-.4,36.13-7.38,60.53,7.02,33.08,19.52,38.85,68.21,30.7,99.12-2.5,9.48-8.26,19.51-19.77,39.56-15.89,27.67-24.11,41.63-37.25,47.28-14.92,6.43-36.26,6.43-52.63-1.75,0,0,0,0,0,0-7.28-3.65-15.29-9.91-25.44-7.89-7.43,1.48-10,6.19-15.79,9.65-15.79,9.42-41.9-2.15-44.74-3.51-19.37-9.25-27.64-26-41-53.06-12.9-26.12-19.35-39.18-19.52-58.35-.07-8.2.74-47.63,31.58-70.18Z"/>
  <path class="cls-6" d="M375.38,96.65"/>
  <path class="cls-5" d="M183.27,98.41c-3.53-4.06-1.7-9.7,5.17-32.59,7.35-24.49,8.75-29.68,12.38-30.09,4.52-.52,10.15,6.63,11.41,13.56,1.42,7.84-3.67,10.45-7.75,23.56-5.04,16.21-1.17,24.75-7.16,28.19-4.16,2.39-10.84,1.05-14.04-2.63Z"/>
  <path class="cls-3" d="M141.47,35.44c2.85-5.08,15.37-3.04,21.94-1.97,3.96.65,8.77,1.47,14.34,4.5,2.51,1.36,8.81,5.14,13.78,12.66,2.36,3.56,7.57,11.44,4.78,15.47-1.82,2.63-6.18,2.37-12.94,1.97-4.14-.25-11.88-.79-20.81-5.34-2.84-1.45-7.84-4.06-12.66-9.28-1.6-1.74-11.52-12.51-8.44-18Z"/>
  <path class="cls-1" d="M333.28,253.12"/>
  <circle class="cls-1" cx="154.66" cy="158.44" r="48.56"/>
  <rect class="cls-7" x="189.74" y="190.32" width="95.63" height="26.51" rx="10.49" ry="10.49" transform="translate(130.38 -90.34) rotate(29.37)"/>
  <text class="cls-2" transform="translate(76.66 313.36) scale(.69 1)"><tspan x="0" y="0">DIETDETECTIVE</tspan></text>
</svg>